<svg id="visual" viewBox="0 0 900 600" width="900" height="600" xmlns="http://www.w3.org/2000/svg" xmlns:xlink="http://www.w3.org/1999/xlink" version="1.1"><path d="M0 31L11.5 33C23 35 46 39 69 39C92 39 115 35 138.2 37C161.3 39 184.7 47 207.8 50C231 53 254 51 277 47C300 43 323 37 346 36C369 35 392 39 415.2 43C438.3 47 461.7 51 484.8 48C508 45 531 35 554 31C577 27 600 29 623 29C646 29 669 27 692.2 30C715.3 33 738.7 41 761.8 42C785 43 808 37 831 36C854 35 877 39 888.5 41L900 43L900 0L888.5 0C877 0 854 0 831 0C808 0 785 0 761.8 0C738.7 0 715.3 0 692.2 0C669 0 646 0 623 0C600 0 577 0 554 0C531 0 508 0 484.8 0C461.7 0 438.3 0 415.2 0C392 0 369 0 346 0C323 0 300 0 277 0C254 0 231 0 207.8 0C184.7 0 161.3 0 138.2 0C115 0 92 0 69 0C46 0 23 0 11.5 0L0 0Z" fill="#64b5f6"></path><path d="M0 85L11.5 83C23 81 46 77 69 77C92 77 115 81 138.2 86C161.3 91 184.7 97 207.8 98C231 99 254 95 277 92C300 89 323 87 346 85C369 83 392 81 415.2 81C438.3 81 461.7 83 484.8 81C508 79 531 73 554 70C577 67 600 67 623 70C646 73 669 79 692.2 87C715.3 95 738.7 105 761.8 102C785 99 808 83 831 81C854 79 877 91 888.5 97L900 103L900 41L888.5 39C877 37 854 33 831 34C808 35 785 41 761.8 40C738.7 39 715.3 31 692.2 28C669 25 646 27 623 27C600 27 577 25 554 29C531 33 508 43 484.8 46C461.7 49 438.3 45 415.2 41C392 37 369 33 346 34C323 35 300 41 277 45C254 49 231 51 207.8 48C184.7 45 161.3 37 138.2 35C115 33 92 37 69 37C46 37 23 33 11.5 31L0 29Z" fill="#4dabf9"></path><path d="M0 217L11.5 201C23 185 46 153 69 151C92 149 115 177 138.2 188C161.3 199 184.7 193 207.8 185C231 177 254 167 277 164C300 161 323 165 346 167C369 169 392 169 415.2 164C438.3 159 461.7 149 484.8 148C508 147 531 155 554 159C577 163 600 163 623 161C646 159 669 155 692.2 159C715.3 163 738.7 175 761.8 179C785 183 808 179 831 176C854 173 877 171 888.5 170L900 169L900 101L888.5 95C877 89 854 77 831 79C808 81 785 97 761.8 100C738.7 103 715.3 93 692.2 85C669 77 646 71 623 68C600 65 577 65 554 68C531 71 508 77 484.8 79C461.7 81 438.3 79 415.2 79C392 79 369 81 346 83C323 85 300 87 277 90C254 93 231 97 207.8 96C184.7 95 161.3 89 138.2 84C115 79 92 75 69 75C46 75 23 79 11.5 81L0 83Z" fill="#35a1fc"></path><path d="M0 259L11.5 242C23 225 46 191 69 186C92 181 115 205 138.2 216C161.3 227 184.7 225 207.8 217C231 209 254 195 277 195C300 195 323 209 346 212C369 215 392 207 415.2 200C438.3 193 461.7 187 484.8 186C508 185 531 189 554 191C577 193 600 193 623 195C646 197 669 201 692.2 206C715.3 211 738.7 217 761.8 218C785 219 808 215 831 215C854 215 877 219 888.5 221L900 223L900 167L888.5 168C877 169 854 171 831 174C808 177 785 181 761.8 177C738.7 173 715.3 161 692.2 157C669 153 646 157 623 159C600 161 577 161 554 157C531 153 508 145 484.8 146C461.7 147 438.3 157 415.2 162C392 167 369 167 346 165C323 163 300 159 277 162C254 165 231 175 207.8 183C184.7 191 161.3 197 138.2 186C115 175 92 147 69 149C46 151 23 183 11.5 199L0 215Z" fill="#1796fe"></path><path d="M0 301L11.5 290C23 279 46 257 69 252C92 247 115 259 138.2 267C161.3 275 184.7 279 207.8 278C231 277 254 271 277 275C300 279 323 293 346 293C369 293 392 279 415.2 270C438.3 261 461.7 257 484.8 259C508 261 531 269 554 273C577 277 600 277 623 276C646 275 669 273 692.2 277C715.3 281 738.7 291 761.8 288C785 285 808 269 831 267C854 265 877 277 888.5 283L900 289L900 221L888.5 219C877 217 854 213 831 213C808 213 785 217 761.8 216C738.7 215 715.3 209 692.2 204C669 199 646 195 623 193C600 191 577 191 554 189C531 187 508 183 484.8 184C461.7 185 438.3 191 415.2 198C392 205 369 213 346 210C323 207 300 193 277 193C254 193 231 207 207.8 215C184.7 223 161.3 225 138.2 214C115 203 92 179 69 184C46 189 23 223 11.5 240L0 257Z" fill="#008aff"></path><path d="M0 379L11.5 370C23 361 46 343 69 346C92 349 115 373 138.2 391C161.3 409 184.7 421 207.8 420C231 419 254 405 277 404C300 403 323 415 346 417C369 419 392 411 415.2 406C438.3 401 461.7 399 484.8 403C508 407 531 417 554 420C577 423 600 419 623 422C646 425 669 435 692.2 428C715.3 421 738.7 397 761.8 400C785 403 808 433 831 443C854 453 877 443 888.5 438L900 433L900 287L888.5 281C877 275 854 263 831 265C808 267 785 283 761.8 286C738.7 289 715.3 279 692.2 275C669 271 646 273 623 274C600 275 577 275 554 271C531 267 508 259 484.8 257C461.7 255 438.3 259 415.2 268C392 277 369 291 346 291C323 291 300 277 277 273C254 269 231 275 207.8 276C184.7 277 161.3 273 138.2 265C115 257 92 245 69 250C46 255 23 277 11.5 288L0 299Z" fill="#007eff"></path><path d="M0 571L11.5 566C23 561 46 551 69 545C92 539 115 537 138.2 535C161.3 533 184.7 531 207.8 530C231 529 254 529 277 531C300 533 323 537 346 538C369 539 392 537 415.2 535C438.3 533 461.7 531 484.8 536C508 541 531 553 554 557C577 561 600 557 623 551C646 545 669 537 692.2 533C715.3 529 738.7 529 761.8 535C785 541 808 553 831 560C854 567 877 569 888.5 570L900 571L900 431L888.5 436C877 441 854 451 831 441C808 431 785 401 761.8 398C738.7 395 715.3 419 692.2 426C669 433 646 423 623 420C600 417 577 421 554 418C531 415 508 405 484.8 401C461.7 397 438.3 399 415.2 404C392 409 369 417 346 415C323 413 300 401 277 402C254 403 231 417 207.8 418C184.7 419 161.3 407 138.2 389C115 371 92 347 69 344C46 341 23 359 11.5 368L0 377Z" fill="#0071ff"></path><path d="M0 601L11.5 601C23 601 46 601 69 601C92 601 115 601 138.2 601C161.3 601 184.7 601 207.8 601C231 601 254 601 277 601C300 601 323 601 346 601C369 601 392 601 415.2 601C438.3 601 461.7 601 484.8 601C508 601 531 601 554 601C577 601 600 601 623 601C646 601 669 601 692.2 601C715.3 601 738.7 601 761.8 601C785 601 808 601 831 601C854 601 877 601 888.5 601L900 601L900 569L888.5 568C877 567 854 565 831 558C808 551 785 539 761.8 533C738.7 527 715.3 527 692.2 531C669 535 646 543 623 549C600 555 577 559 554 555C531 551 508 539 484.8 534C461.7 529 438.3 531 415.2 533C392 535 369 537 346 536C323 535 300 531 277 529C254 527 231 527 207.8 528C184.7 529 161.3 531 138.2 533C115 535 92 537 69 543C46 549 23 559 11.5 564L0 569Z" fill="#2962ff"></path></svg>