<svg id="visual" viewBox="0 0 900 600" width="900" height="600" xmlns="http://www.w3.org/2000/svg" xmlns:xlink="http://www.w3.org/1999/xlink" version="1.1"><rect x="0" y="0" width="900" height="600" fill="#b3e5fc"></rect><path d="M0 419L21.5 412.3C43 405.7 86 392.3 128.8 392.8C171.7 393.3 214.3 407.7 257.2 416C300 424.3 343 426.7 385.8 428C428.7 429.3 471.3 429.7 514.2 424C557 418.3 600 406.7 642.8 394.3C685.7 382 728.3 369 771.2 375.5C814 382 857 408 878.5 421L900 434L900 601L878.5 601C857 601 814 601 771.2 601C728.3 601 685.7 601 642.8 601C600 601 557 601 514.2 601C471.3 601 428.7 601 385.8 601C343 601 300 601 257.2 601C214.3 601 171.7 601 128.8 601C86 601 43 601 21.5 601L0 601Z" fill="#43a047"></path><path d="M0 460L21.5 461C43 462 86 464 128.8 466.7C171.7 469.3 214.3 472.7 257.2 464.7C300 456.7 343 437.3 385.8 435.3C428.7 433.3 471.3 448.7 514.2 445C557 441.3 600 418.7 642.8 417.2C685.7 415.7 728.3 435.3 771.2 436.2C814 437 857 419 878.5 410L900 401L900 601L878.5 601C857 601 814 601 771.2 601C728.3 601 685.7 601 642.8 601C600 601 557 601 514.2 601C471.3 601 428.7 601 385.8 601C343 601 300 601 257.2 601C214.3 601 171.7 601 128.8 601C86 601 43 601 21.5 601L0 601Z" fill="#398f3d"></path><path d="M0 440L21.5 448.2C43 456.3 86 472.7 128.8 473.7C171.7 474.7 214.3 460.3 257.2 457.5C300 454.7 343 463.3 385.8 472C428.7 480.7 471.3 489.3 514.2 495.7C557 502 600 506 642.8 502.3C685.7 498.7 728.3 487.3 771.2 480.7C814 474 857 472 878.5 471L900 470L900 601L878.5 601C857 601 814 601 771.2 601C728.3 601 685.7 601 642.8 601C600 601 557 601 514.2 601C471.3 601 428.7 601 385.8 601C343 601 300 601 257.2 601C214.3 601 171.7 601 128.8 601C86 601 43 601 21.5 601L0 601Z" fill="#2f7e33"></path><path d="M0 542L21.5 539.7C43 537.3 86 532.7 128.8 532.3C171.7 532 214.3 536 257.2 537C300 538 343 536 385.8 529.5C428.7 523 471.3 512 514.2 504.3C557 496.7 600 492.3 642.8 498C685.7 503.7 728.3 519.3 771.2 524.7C814 530 857 525 878.5 522.5L900 520L900 601L878.5 601C857 601 814 601 771.2 601C728.3 601 685.7 601 642.8 601C600 601 557 601 514.2 601C471.3 601 428.7 601 385.8 601C343 601 300 601 257.2 601C214.3 601 171.7 601 128.8 601C86 601 43 601 21.5 601L0 601Z" fill="#256e29"></path><path d="M0 556L21.5 554.2C43 552.3 86 548.7 128.8 546.8C171.7 545 214.3 545 257.2 542.2C300 539.3 343 533.7 385.8 536.5C428.7 539.3 471.3 550.7 514.2 557.8C557 565 600 568 642.8 569.7C685.7 571.3 728.3 571.7 771.2 567C814 562.3 857 552.7 878.5 547.8L900 543L900 601L878.5 601C857 601 814 601 771.2 601C728.3 601 685.7 601 642.8 601C600 601 557 601 514.2 601C471.3 601 428.7 601 385.8 601C343 601 300 601 257.2 601C214.3 601 171.7 601 128.8 601C86 601 43 601 21.5 601L0 601Z" fill="#1b5e20"></path></svg>