<svg id="visual" viewBox="0 0 900 600" width="900" height="600" xmlns="http://www.w3.org/2000/svg" xmlns:xlink="http://www.w3.org/1999/xlink" version="1.1"><g stroke-width="1" stroke-linejoin="bevel"><path d="M410 263L371 235L307 278Z" fill="#a5918a" stroke="#a5918a"></path><path d="M307 278L390 362L410 263Z" fill="#8d756d" stroke="#8d756d"></path><path d="M371 235L299 201L307 278Z" fill="#694d44" stroke="#694d44"></path><path d="M299 201L237 277L307 278Z" fill="#8d756d" stroke="#8d756d"></path><path d="M307 278L268 418L390 362Z" fill="#81675f" stroke="#81675f"></path><path d="M371 235L337 134L299 201Z" fill="#a5918a" stroke="#a5918a"></path><path d="M299 201L195 179L237 277Z" fill="#755a51" stroke="#755a51"></path><path d="M388 134L337 134L371 235Z" fill="#cabdb8" stroke="#cabdb8"></path><path d="M459 144L388 134L371 235Z" fill="#cabdb8" stroke="#cabdb8"></path><path d="M237 277L268 418L307 278Z" fill="#beaea8" stroke="#beaea8"></path><path d="M526 423L525 303L390 362Z" fill="#beaea8" stroke="#beaea8"></path><path d="M390 362L525 303L410 263Z" fill="#a5918a" stroke="#a5918a"></path><path d="M410 263L459 144L371 235Z" fill="#8d756d" stroke="#8d756d"></path><path d="M550 229L459 144L410 263Z" fill="#8d756d" stroke="#8d756d"></path><path d="M237 277L236 417L268 418Z" fill="#694d44" stroke="#694d44"></path><path d="M525 303L550 229L410 263Z" fill="#99837b" stroke="#99837b"></path><path d="M218 128L195 179L299 201Z" fill="#755a51" stroke="#755a51"></path><path d="M237 277L118 345L236 417Z" fill="#8d756d" stroke="#8d756d"></path><path d="M356 544L526 423L390 362Z" fill="#d7ccc8" stroke="#d7ccc8"></path><path d="M525 303L650 290L550 229Z" fill="#694d44" stroke="#694d44"></path><path d="M282 0L218 128L337 134Z" fill="#5d4037" stroke="#5d4037"></path><path d="M337 134L218 128L299 201Z" fill="#beaea8" stroke="#beaea8"></path><path d="M526 423L572 356L525 303Z" fill="#d7ccc8" stroke="#d7ccc8"></path><path d="M198 517L308 516L268 418Z" fill="#5d4037" stroke="#5d4037"></path><path d="M268 418L308 516L390 362Z" fill="#81675f" stroke="#81675f"></path><path d="M83 347L118 345L53 173Z" fill="#5d4037" stroke="#5d4037"></path><path d="M195 179L118 345L237 277Z" fill="#beaea8" stroke="#beaea8"></path><path d="M236 417L198 517L268 418Z" fill="#d7ccc8" stroke="#d7ccc8"></path><path d="M308 516L356 544L390 362Z" fill="#beaea8" stroke="#beaea8"></path><path d="M135 496L198 517L236 417Z" fill="#5d4037" stroke="#5d4037"></path><path d="M293 600L392 600L356 544Z" fill="#99837b" stroke="#99837b"></path><path d="M53 173L118 345L195 179Z" fill="#beaea8" stroke="#beaea8"></path><path d="M118 345L135 496L236 417Z" fill="#81675f" stroke="#81675f"></path><path d="M650 290L615 157L550 229Z" fill="#a5918a" stroke="#a5918a"></path><path d="M550 229L615 157L459 144Z" fill="#8d756d" stroke="#8d756d"></path><path d="M459 144L364 0L388 134Z" fill="#755a51" stroke="#755a51"></path><path d="M705 384L650 290L572 356Z" fill="#beaea8" stroke="#beaea8"></path><path d="M356 544L510 535L526 423Z" fill="#d7ccc8" stroke="#d7ccc8"></path><path d="M699 309L650 290L705 384Z" fill="#5d4037" stroke="#5d4037"></path><path d="M572 356L650 290L525 303Z" fill="#81675f" stroke="#81675f"></path><path d="M524 0L364 0L459 144Z" fill="#d7ccc8" stroke="#d7ccc8"></path><path d="M388 134L364 0L337 134Z" fill="#694d44" stroke="#694d44"></path><path d="M364 0L282 0L337 134Z" fill="#d7ccc8" stroke="#d7ccc8"></path><path d="M48 150L53 173L195 179Z" fill="#b2a099" stroke="#b2a099"></path><path d="M83 347L135 496L118 345Z" fill="#694d44" stroke="#694d44"></path><path d="M293 600L356 544L308 516Z" fill="#a5918a" stroke="#a5918a"></path><path d="M356 544L392 600L510 535Z" fill="#beaea8" stroke="#beaea8"></path><path d="M293 600L308 516L198 517Z" fill="#755a51" stroke="#755a51"></path><path d="M153 600L293 600L198 517Z" fill="#beaea8" stroke="#beaea8"></path><path d="M615 157L584 61L459 144Z" fill="#81675f" stroke="#81675f"></path><path d="M48 150L195 179L218 128Z" fill="#beaea8" stroke="#beaea8"></path><path d="M584 61L524 0L459 144Z" fill="#99837b" stroke="#99837b"></path><path d="M641 490L572 356L526 423Z" fill="#a5918a" stroke="#a5918a"></path><path d="M650 290L730 239L615 157Z" fill="#d7ccc8" stroke="#d7ccc8"></path><path d="M615 157L742 128L584 61Z" fill="#99837b" stroke="#99837b"></path><path d="M129 0L48 150L218 128Z" fill="#beaea8" stroke="#beaea8"></path><path d="M53 173L0 308L83 347Z" fill="#beaea8" stroke="#beaea8"></path><path d="M654 516L641 490L510 535Z" fill="#694d44" stroke="#694d44"></path><path d="M510 535L641 490L526 423Z" fill="#99837b" stroke="#99837b"></path><path d="M282 0L156 0L218 128Z" fill="#b2a099" stroke="#b2a099"></path><path d="M672 0L568 0L584 61Z" fill="#cabdb8" stroke="#cabdb8"></path><path d="M584 61L568 0L524 0Z" fill="#a5918a" stroke="#a5918a"></path><path d="M641 490L705 384L572 356Z" fill="#d7ccc8" stroke="#d7ccc8"></path><path d="M392 600L537 600L510 535Z" fill="#5d4037" stroke="#5d4037"></path><path d="M0 177L0 308L53 173Z" fill="#a5918a" stroke="#a5918a"></path><path d="M83 347L0 369L135 496Z" fill="#694d44" stroke="#694d44"></path><path d="M0 308L0 369L83 347Z" fill="#beaea8" stroke="#beaea8"></path><path d="M537 600L654 516L510 535Z" fill="#99837b" stroke="#99837b"></path><path d="M641 490L654 516L705 384Z" fill="#a5918a" stroke="#a5918a"></path><path d="M156 0L129 0L218 128Z" fill="#99837b" stroke="#99837b"></path><path d="M793 205L730 239L850 290Z" fill="#755a51" stroke="#755a51"></path><path d="M699 309L730 239L650 290Z" fill="#8d756d" stroke="#8d756d"></path><path d="M91 600L153 600L135 496Z" fill="#81675f" stroke="#81675f"></path><path d="M135 496L153 600L198 517Z" fill="#b2a099" stroke="#b2a099"></path><path d="M0 61L0 177L48 150Z" fill="#694d44" stroke="#694d44"></path><path d="M48 150L0 177L53 173Z" fill="#755a51" stroke="#755a51"></path><path d="M0 531L91 600L135 496Z" fill="#a5918a" stroke="#a5918a"></path><path d="M730 239L742 128L615 157Z" fill="#81675f" stroke="#81675f"></path><path d="M537 600L649 600L654 516Z" fill="#755a51" stroke="#755a51"></path><path d="M806 547L824 416L705 384Z" fill="#b2a099" stroke="#b2a099"></path><path d="M742 128L672 0L584 61Z" fill="#beaea8" stroke="#beaea8"></path><path d="M129 0L0 61L48 150Z" fill="#5d4037" stroke="#5d4037"></path><path d="M0 369L0 531L135 496Z" fill="#755a51" stroke="#755a51"></path><path d="M649 600L670 600L654 516Z" fill="#beaea8" stroke="#beaea8"></path><path d="M850 290L730 239L699 309Z" fill="#a5918a" stroke="#a5918a"></path><path d="M850 290L699 309L705 384Z" fill="#d7ccc8" stroke="#d7ccc8"></path><path d="M730 239L793 205L742 128Z" fill="#d7ccc8" stroke="#d7ccc8"></path><path d="M742 128L746 0L672 0Z" fill="#cabdb8" stroke="#cabdb8"></path><path d="M129 0L0 0L0 61Z" fill="#694d44" stroke="#694d44"></path><path d="M0 531L0 600L91 600Z" fill="#694d44" stroke="#694d44"></path><path d="M806 547L705 384L654 516Z" fill="#8d756d" stroke="#8d756d"></path><path d="M846 63L746 0L742 128Z" fill="#5d4037" stroke="#5d4037"></path><path d="M824 416L850 290L705 384Z" fill="#8d756d" stroke="#8d756d"></path><path d="M793 205L846 63L742 128Z" fill="#8d756d" stroke="#8d756d"></path><path d="M670 600L806 547L654 516Z" fill="#beaea8" stroke="#beaea8"></path><path d="M900 406L900 253L850 290Z" fill="#5d4037" stroke="#5d4037"></path><path d="M900 191L846 63L793 205Z" fill="#81675f" stroke="#81675f"></path><path d="M900 406L850 290L824 416Z" fill="#99837b" stroke="#99837b"></path><path d="M850 290L900 253L793 205Z" fill="#99837b" stroke="#99837b"></path><path d="M900 253L900 191L793 205Z" fill="#a5918a" stroke="#a5918a"></path><path d="M900 480L900 406L824 416Z" fill="#cabdb8" stroke="#cabdb8"></path><path d="M670 600L818 600L806 547Z" fill="#755a51" stroke="#755a51"></path><path d="M806 547L900 480L824 416Z" fill="#cabdb8" stroke="#cabdb8"></path><path d="M900 600L900 480L806 547Z" fill="#5d4037" stroke="#5d4037"></path><path d="M900 191L900 82L846 63Z" fill="#5d4037" stroke="#5d4037"></path><path d="M846 63L900 0L746 0Z" fill="#beaea8" stroke="#beaea8"></path><path d="M900 82L900 0L846 63Z" fill="#81675f" stroke="#81675f"></path><path d="M818 600L900 600L806 547Z" fill="#d7ccc8" stroke="#d7ccc8"></path></g></svg>